<?xml version="1.0" encoding="UTF-8"?><svg id="Layer_1" xmlns="http://www.w3.org/2000/svg" xmlns:xlink="http://www.w3.org/1999/xlink" viewBox="0 0 1500 500"><defs><style>.cls-1{fill:url(#linear-gradient-75);}.cls-2{fill:url(#linear-gradient-2);}.cls-3{fill:url(#linear-gradient-51);}.cls-4{opacity:.7;}.cls-5{fill:url(#linear-gradient-17);}.cls-6{fill:url(#linear-gradient-87);}.cls-7{fill:url(#linear-gradient-80);}.cls-8{fill:url(#linear-gradient-43);}.cls-9{letter-spacing:0em;}.cls-10{fill:url(#linear-gradient-15);}.cls-11{fill:url(#linear-gradient-58);}.cls-12{fill:url(#linear-gradient-69);}.cls-13{fill:url(#linear-gradient-81);}.cls-14{fill:url(#linear-gradient-18);}.cls-15{fill:url(#linear-gradient-56);}.cls-16{fill:url(#linear-gradient-40);}.cls-17{letter-spacing:0em;}.cls-18{fill:#6b6464;font-family:Manrope-Light, Manrope;font-weight:300;}.cls-18,.cls-19,.cls-20{font-size:36px;}.cls-21{fill:url(#linear-gradient-52);}.cls-22{fill:url(#linear-gradient-28);}.cls-23{fill:url(#linear-gradient-14);}.cls-24{fill:url(#linear-gradient-36);}.cls-25{fill:url(#linear-gradient-78);}.cls-26{fill:url(#linear-gradient-20);}.cls-27{fill:url(#linear-gradient-6);}.cls-28{letter-spacing:-.02em;}.cls-29{fill:url(#linear-gradient-53);}.cls-19{font-family:Manrope-Regular, Manrope;}.cls-30{fill:url(#linear-gradient-60);}.cls-31{letter-spacing:0em;}.cls-32{fill:url(#linear-gradient-84);}.cls-33{fill:url(#linear-gradient-35);}.cls-34{fill:url(#linear-gradient-48);}.cls-35{stroke-dasharray:0 0 20.29 20.29;}.cls-35,.cls-36,.cls-37{fill:none;}.cls-35,.cls-37{stroke:#7f2afd;stroke-miterlimit:10;stroke-width:4px;}.cls-38{fill:url(#linear-gradient-32);}.cls-39{letter-spacing:0em;}.cls-40{letter-spacing:-.02em;}.cls-41{fill:url(#linear-gradient-11);}.cls-42{fill:url(#linear-gradient-50);}.cls-43{letter-spacing:-.02em;}.cls-44{fill:url(#linear-gradient-63);}.cls-45{fill:url(#linear-gradient-67);}.cls-46{fill:url(#linear-gradient-86);}.cls-47{fill:url(#linear-gradient-39);}.cls-48{fill:url(#linear-gradient-10);}.cls-49{fill:url(#linear-gradient-59);}.cls-50{letter-spacing:-.02em;}.cls-51{fill:url(#linear-gradient-49);}.cls-52{fill:url(#linear-gradient-37);}.cls-53{fill:url(#linear-gradient-82);}.cls-54{fill:url(#linear-gradient-16);}.cls-55{fill:url(#linear-gradient-31);}.cls-56{fill:url(#linear-gradient-85);}.cls-57{letter-spacing:0em;}.cls-58{fill:url(#linear-gradient-61);}.cls-59{fill:url(#linear-gradient-68);}.cls-60{fill:url(#linear-gradient-62);}.cls-61{fill:url(#linear-gradient-41);}.cls-62{fill:url(#linear-gradient-76);}.cls-63{fill:url(#linear-gradient-21);}.cls-64{fill:url(#linear-gradient-72);}.cls-65{fill:url(#linear-gradient-25);}.cls-66{fill:url(#linear-gradient-5);}.cls-67{fill:url(#linear-gradient-64);}.cls-68{fill:url(#linear-gradient-83);}.cls-69{fill:url(#linear-gradient-54);}.cls-70{fill:url(#linear-gradient-45);}.cls-71{fill:url(#linear-gradient-55);}.cls-72{clip-path:url(#clippath);}.cls-73{fill:url(#linear-gradient-34);}.cls-74{fill:url(#linear-gradient-65);}.cls-75{letter-spacing:-.01em;}.cls-76{fill:url(#linear-gradient-70);}.cls-77{fill:url(#linear-gradient-79);}.cls-78{fill:url(#linear-gradient-88);}.cls-79{fill:url(#linear-gradient-7);}.cls-80{fill:url(#linear-gradient-66);}.cls-81{letter-spacing:0em;}.cls-82{fill:url(#linear-gradient-24);}.cls-83{fill:url(#linear-gradient-73);}.cls-84{fill:url(#linear-gradient-9);}.cls-85{fill:url(#linear-gradient-22);}.cls-86{fill:url(#linear-gradient-74);}.cls-87{fill:url(#linear-gradient-42);}.cls-88{mask:url(#mask);}.cls-89{fill:url(#linear-gradient-3);}.cls-90{fill:url(#linear-gradient);}.cls-91{fill:url(#linear-gradient-27);}.cls-92{font-size:60px;}.cls-92,.cls-20{font-family:Manrope-SemiBold, Manrope;font-weight:600;}.cls-93{letter-spacing:-.02em;}.cls-20{fill:lime;}.cls-94{fill:url(#linear-gradient-33);}.cls-95{fill:url(#linear-gradient-38);}.cls-96{letter-spacing:-.02em;}.cls-97{letter-spacing:-.01em;}.cls-98{fill:url(#linear-gradient-29);}.cls-99{letter-spacing:0em;}.cls-100{fill:url(#linear-gradient-30);}.cls-101{fill:url(#linear-gradient-23);}.cls-102{fill:url(#linear-gradient-19);}.cls-103{fill:url(#linear-gradient-71);}.cls-104{fill:url(#linear-gradient-4);}.cls-105{fill:url(#linear-gradient-77);}.cls-106{fill:url(#linear-gradient-8);}.cls-107{fill:url(#linear-gradient-44);}.cls-108{fill:url(#linear-gradient-57);}.cls-109{fill:url(#linear-gradient-47);}.cls-110{letter-spacing:0em;}.cls-111{fill:url(#linear-gradient-46);}.cls-112{fill:url(#linear-gradient-12);}.cls-113{fill:url(#linear-gradient-13);}.cls-114{fill:url(#linear-gradient-26);}</style><clipPath id="clippath"><rect class="cls-36" x=".67" y="8.5" width="1498.67" height="483" rx="16" ry="16"/></clipPath><linearGradient id="linear-gradient" x1="1517.83" y1="233.84" x2="307.33" y2="233.84" gradientUnits="userSpaceOnUse"><stop offset="0" stop-color="#fff"/><stop offset="1" stop-color="#000" stop-opacity="0"/></linearGradient><mask id="mask" x="307.33" y="-72.66" width="1210.61" height="613" maskUnits="userSpaceOnUse"><rect class="cls-90" x="307.33" y="-72.66" width="1210.5" height="613"/></mask><linearGradient id="linear-gradient-2" x1=".66" y1="250" x2="1499.33" y2="250" gradientUnits="userSpaceOnUse"><stop offset="0" stop-color="#ca409f"/><stop offset="1" stop-color="#6f35ff"/></linearGradient><linearGradient id="linear-gradient-3" x1="74.51" y1="81.02" x2="1245.21" y2="81.02" xlink:href="#linear-gradient-2"/><linearGradient id="linear-gradient-4" x1="74.51" y1="81.02" x2="1245.21" y2="81.02" xlink:href="#linear-gradient-2"/><linearGradient id="linear-gradient-5" x1="74.51" y1="81.02" x2="1245.21" y2="81.02" xlink:href="#linear-gradient-2"/><linearGradient id="linear-gradient-6" x1="74.51" y1="81.02" x2="1245.21" y2="81.02" xlink:href="#linear-gradient-2"/><linearGradient id="linear-gradient-7" x1="74.51" y1="81.02" x2="1245.21" y2="81.02" xlink:href="#linear-gradient-2"/><linearGradient id="linear-gradient-8" x1="74.51" y1="81.02" x2="1245.21" y2="81.02" xlink:href="#linear-gradient-2"/><linearGradient id="linear-gradient-9" x1="74.51" y1="81.02" x2="1245.21" y2="81.02" xlink:href="#linear-gradient-2"/><linearGradient id="linear-gradient-10" x1="74.51" y1="81.02" x2="1245.21" y2="81.02" xlink:href="#linear-gradient-2"/><linearGradient id="linear-gradient-11" x1="74.51" y1="81.02" x2="1245.21" y2="81.02" xlink:href="#linear-gradient-2"/><linearGradient id="linear-gradient-12" x1="74.51" y1="81.02" x2="1245.21" y2="81.02" xlink:href="#linear-gradient-2"/><linearGradient id="linear-gradient-13" x1="74.51" y1="81.02" x2="1245.21" y2="81.02" xlink:href="#linear-gradient-2"/><linearGradient id="linear-gradient-14" x1="74.51" y1="81.02" x2="1245.21" y2="81.02" xlink:href="#linear-gradient-2"/><linearGradient id="linear-gradient-15" x1="74.51" y1="81.02" x2="1245.21" y2="81.02" xlink:href="#linear-gradient-2"/><linearGradient id="linear-gradient-16" x1="74.51" y1="81.02" x2="1245.21" y2="81.02" xlink:href="#linear-gradient-2"/><linearGradient id="linear-gradient-17" x1="74.51" y1="81.02" x2="1245.21" y2="81.02" xlink:href="#linear-gradient-2"/><linearGradient id="linear-gradient-18" x1="74.51" y1="81.02" x2="1245.21" y2="81.02" xlink:href="#linear-gradient-2"/><linearGradient id="linear-gradient-19" x1="74.51" y1="81.02" x2="1245.21" y2="81.02" xlink:href="#linear-gradient-2"/><linearGradient id="linear-gradient-20" x1="74.51" y1="81.02" x2="1245.21" y2="81.02" xlink:href="#linear-gradient-2"/><linearGradient id="linear-gradient-21" x1="74.51" y1="81.02" x2="1245.21" y2="81.02" xlink:href="#linear-gradient-2"/><linearGradient id="linear-gradient-22" x1="74.51" y1="81.02" x2="1245.21" y2="81.02" xlink:href="#linear-gradient-2"/><linearGradient id="linear-gradient-23" x1="74.51" y1="81.02" x2="1245.21" y2="81.02" xlink:href="#linear-gradient-2"/><linearGradient id="linear-gradient-24" x1="74.51" y1="81.02" x2="1245.21" y2="81.02" xlink:href="#linear-gradient-2"/><linearGradient id="linear-gradient-25" x1="74.51" y1="81.02" x2="1245.21" y2="81.02" xlink:href="#linear-gradient-2"/><linearGradient id="linear-gradient-26" x1="74.51" y1="81.02" x2="1245.21" y2="81.02" xlink:href="#linear-gradient-2"/><linearGradient id="linear-gradient-27" x1="74.51" y1="81.02" x2="1245.21" y2="81.02" xlink:href="#linear-gradient-2"/><linearGradient id="linear-gradient-28" x1="74.51" y1="81.02" x2="1245.21" y2="81.02" xlink:href="#linear-gradient-2"/><linearGradient id="linear-gradient-29" x1="74.51" y1="81.02" x2="1245.21" y2="81.02" xlink:href="#linear-gradient-2"/><linearGradient id="linear-gradient-30" x1="74.51" y1="81.02" x2="1245.21" y2="81.02" xlink:href="#linear-gradient-2"/><linearGradient id="linear-gradient-31" x1="74.51" y1="81.02" x2="1245.21" y2="81.02" xlink:href="#linear-gradient-2"/><linearGradient id="linear-gradient-32" x1="74.51" y1="81.02" x2="1245.21" y2="81.02" xlink:href="#linear-gradient-2"/><linearGradient id="linear-gradient-33" x1="74.51" y1="81.02" x2="1245.21" y2="81.02" xlink:href="#linear-gradient-2"/><linearGradient id="linear-gradient-34" x1="74.51" y1="81.02" x2="1245.21" y2="81.02" xlink:href="#linear-gradient-2"/><linearGradient id="linear-gradient-35" x1="74.51" y1="81.02" x2="1245.21" y2="81.02" xlink:href="#linear-gradient-2"/><linearGradient id="linear-gradient-36" x1="74.51" y1="81.02" x2="1245.21" y2="81.02" xlink:href="#linear-gradient-2"/><linearGradient id="linear-gradient-37" x1="74.51" y1="81.02" x2="1245.21" y2="81.02" xlink:href="#linear-gradient-2"/><linearGradient id="linear-gradient-38" x1="74.51" y1="81.02" x2="1245.21" y2="81.02" xlink:href="#linear-gradient-2"/><linearGradient id="linear-gradient-39" x1="74.51" y1="81.02" x2="1245.21" y2="81.02" xlink:href="#linear-gradient-2"/><linearGradient id="linear-gradient-40" x1="74.51" y1="81.02" x2="1245.21" y2="81.02" xlink:href="#linear-gradient-2"/><linearGradient id="linear-gradient-41" x1="74.51" y1="81.02" x2="1245.21" y2="81.02" xlink:href="#linear-gradient-2"/><linearGradient id="linear-gradient-42" x1="74.51" y1="81.02" x2="1245.21" y2="81.02" xlink:href="#linear-gradient-2"/><linearGradient id="linear-gradient-43" x1="74.51" y1="81.02" x2="1245.21" y2="81.02" xlink:href="#linear-gradient-2"/><linearGradient id="linear-gradient-44" x1="74.51" y1="81.02" x2="1245.21" y2="81.02" xlink:href="#linear-gradient-2"/><linearGradient id="linear-gradient-45" x1="74.51" y1="81.02" x2="1245.21" y2="81.02" xlink:href="#linear-gradient-2"/><linearGradient id="linear-gradient-46" x1="74.51" y1="81.02" x2="1245.21" y2="81.02" xlink:href="#linear-gradient-2"/><linearGradient id="linear-gradient-47" x1="74.51" y1="81.02" x2="1245.21" y2="81.02" xlink:href="#linear-gradient-2"/><linearGradient id="linear-gradient-48" x1="74.51" y1="81.02" x2="1245.21" y2="81.02" xlink:href="#linear-gradient-2"/><linearGradient id="linear-gradient-49" x1="74.51" y1="81.02" x2="1245.21" y2="81.02" xlink:href="#linear-gradient-2"/><linearGradient id="linear-gradient-50" x1="74.51" y1="81.02" x2="1245.21" y2="81.02" xlink:href="#linear-gradient-2"/><linearGradient id="linear-gradient-51" x1="74.51" y1="81.02" x2="1245.21" y2="81.02" xlink:href="#linear-gradient-2"/><linearGradient id="linear-gradient-52" x1="74.51" y1="81.02" x2="1245.21" y2="81.02" xlink:href="#linear-gradient-2"/><linearGradient id="linear-gradient-53" x1="74.51" y1="81.02" x2="1245.21" y2="81.02" xlink:href="#linear-gradient-2"/><linearGradient id="linear-gradient-54" x1="74.51" y1="81.02" x2="1245.21" y2="81.02" xlink:href="#linear-gradient-2"/><linearGradient id="linear-gradient-55" x1="74.51" y1="81.02" x2="1245.21" y2="81.02" xlink:href="#linear-gradient-2"/><linearGradient id="linear-gradient-56" x1="74.51" y1="81.02" x2="1245.21" y2="81.02" xlink:href="#linear-gradient-2"/><linearGradient id="linear-gradient-57" x1="74.51" y1="81.02" x2="1245.21" y2="81.02" xlink:href="#linear-gradient-2"/><linearGradient id="linear-gradient-58" x1="74.51" y1="81.02" x2="1245.21" y2="81.02" xlink:href="#linear-gradient-2"/><linearGradient id="linear-gradient-59" x1="74.51" y1="81.02" x2="1245.21" y2="81.02" xlink:href="#linear-gradient-2"/><linearGradient id="linear-gradient-60" x1="-210.95" y1="1044.42" x2="66.23" y2="1044.42" gradientTransform="translate(355.45 180.71) rotate(-90)" xlink:href="#linear-gradient-2"/><linearGradient id="linear-gradient-61" x1="-210.95" y1="1044.42" x2="66.23" y2="1044.42" gradientTransform="translate(355.45 180.71) rotate(-90)" xlink:href="#linear-gradient-2"/><linearGradient id="linear-gradient-62" x1="-210.95" y1="1044.42" x2="66.23" y2="1044.42" gradientTransform="translate(355.45 180.71) rotate(-90)" xlink:href="#linear-gradient-2"/><linearGradient id="linear-gradient-63" x1="-210.95" y1="1044.42" x2="66.23" y2="1044.42" gradientTransform="translate(355.45 180.71) rotate(-90)" xlink:href="#linear-gradient-2"/><linearGradient id="linear-gradient-64" x1="-210.95" y1="1044.42" x2="66.23" y2="1044.42" gradientTransform="translate(355.45 180.71) rotate(-90)" xlink:href="#linear-gradient-2"/><linearGradient id="linear-gradient-65" x1="-210.95" y1="1044.42" x2="66.23" y2="1044.42" gradientTransform="translate(355.45 180.71) rotate(-90)" xlink:href="#linear-gradient-2"/><linearGradient id="linear-gradient-66" x1="-210.95" y1="1044.42" x2="66.23" y2="1044.42" gradientTransform="translate(355.45 180.71) rotate(-90)" xlink:href="#linear-gradient-2"/><linearGradient id="linear-gradient-67" x1="-210.95" y1="1044.42" x2="66.23" y2="1044.42" gradientTransform="translate(355.45 180.71) rotate(-90)" xlink:href="#linear-gradient-2"/><linearGradient id="linear-gradient-68" x1="-210.95" y1="1044.42" x2="66.23" y2="1044.42" gradientTransform="translate(355.45 180.71) rotate(-90)" xlink:href="#linear-gradient-2"/><linearGradient id="linear-gradient-69" x1="-210.95" y1="1044.42" x2="66.23" y2="1044.42" gradientTransform="translate(355.45 180.71) rotate(-90)" xlink:href="#linear-gradient-2"/><linearGradient id="linear-gradient-70" x1="-210.95" y1="1044.42" x2="66.23" y2="1044.42" gradientTransform="translate(355.45 180.71) rotate(-90)" xlink:href="#linear-gradient-2"/><linearGradient id="linear-gradient-71" x1="-210.95" y1="1044.42" x2="66.23" y2="1044.42" gradientTransform="translate(355.45 180.71) rotate(-90)" xlink:href="#linear-gradient-2"/><linearGradient id="linear-gradient-72" x1="-210.95" y1="1044.42" x2="66.23" y2="1044.42" gradientTransform="translate(355.45 180.71) rotate(-90)" xlink:href="#linear-gradient-2"/><linearGradient id="linear-gradient-73" x1="-210.95" y1="1044.42" x2="66.23" y2="1044.42" gradientTransform="translate(355.45 180.71) rotate(-90)" xlink:href="#linear-gradient-2"/><linearGradient id="linear-gradient-74" x1="-210.95" y1="1044.42" x2="66.23" y2="1044.42" gradientTransform="translate(355.45 180.71) rotate(-90)" xlink:href="#linear-gradient-2"/><linearGradient id="linear-gradient-75" x1="76.19" y1="213" x2="517.75" y2="213" xlink:href="#linear-gradient-2"/><linearGradient id="linear-gradient-76" x1="76.19" y1="213" x2="517.75" y2="213" xlink:href="#linear-gradient-2"/><linearGradient id="linear-gradient-77" x1="76.19" y1="213" x2="517.75" y2="213" xlink:href="#linear-gradient-2"/><linearGradient id="linear-gradient-78" x1="76.19" y1="213" x2="517.75" y2="213" xlink:href="#linear-gradient-2"/><linearGradient id="linear-gradient-79" x1="76.19" y1="213" x2="517.75" y2="213" xlink:href="#linear-gradient-2"/><linearGradient id="linear-gradient-80" x1="76.19" y1="213" x2="517.75" y2="213" xlink:href="#linear-gradient-2"/><linearGradient id="linear-gradient-81" x1="76.19" y1="213" x2="517.75" y2="213" xlink:href="#linear-gradient-2"/><linearGradient id="linear-gradient-82" x1="76.19" y1="213" x2="517.75" y2="213" xlink:href="#linear-gradient-2"/><linearGradient id="linear-gradient-83" x1="76.19" y1="213" x2="517.75" y2="213" xlink:href="#linear-gradient-2"/><linearGradient id="linear-gradient-84" x1="76.19" y1="213" x2="517.75" y2="213" xlink:href="#linear-gradient-2"/><linearGradient id="linear-gradient-85" x1="76.19" y1="213" x2="517.75" y2="213" xlink:href="#linear-gradient-2"/><linearGradient id="linear-gradient-86" x1="76.19" y1="213" x2="517.75" y2="213" xlink:href="#linear-gradient-2"/><linearGradient id="linear-gradient-87" x1="76.19" y1="213" x2="517.75" y2="213" xlink:href="#linear-gradient-2"/><linearGradient id="linear-gradient-88" x1="76.19" y1="213" x2="517.75" y2="213" xlink:href="#linear-gradient-2"/></defs><g class="cls-72"><g class="cls-88"><image class="cls-4" width="1920" height="1080" transform="translate(428.72 -72.5) scale(.57)" xlink:href="../../../../../../Downloads/wallpaperflare.com_wallpaper.jpg"/></g></g><path class="cls-2" d="m1483.33,12.5c6.62,0,12,5.38,12,12v451c0,6.62-5.38,12-12,12H16.66c-6.62,0-12-5.38-12-12V24.5c0-6.62,5.38-12,12-12h1466.67m0-4H16.66C7.83,8.5.66,15.66.66,24.5v451c0,8.84,7.16,16,16,16h1466.67c8.84,0,16-7.16,16-16V24.5c0-8.84-7.16-16-16-16h0Z"/><text class="cls-20" transform="translate(71.99 89.66)"><tspan x="0" y="0">Ein un</tspan><tspan class="cls-28" x="104.02" y="0">v</tspan><tspan class="cls-31" x="122.67" y="0">e</tspan><tspan class="cls-28" x="144.14" y="0">r</tspan><tspan class="cls-31" x="157.34" y="0">gessliches Gesch</tspan><tspan class="cls-97" x="458.31" y="0">e</tspan><tspan x="479.25" y="0">nk für dich, um Erin</tspan><tspan class="cls-17" x="803.28" y="0">n</tspan><tspan x="825.18" y="0">erung</tspan><tspan class="cls-43" x="926.74" y="0">e</tspan><tspan x="947.67" y="0">n zu scha</tspan><tspan class="cls-50" x="1107.92" y="0">ff</tspan><tspan class="cls-43" x="1132.31" y="0">e</tspan><tspan x="1153.25" y="0">n</tspan></text><path class="cls-89" d="m74.51,63.74h16.56v3.55h-12.8v7.27h10.64v3.55h-10.64v8.01h12.8v3.55h-16.56v-25.92Z"/><path class="cls-104" d="m95.75,63.38h3.76v3.65h-3.76v-3.65Zm0,6.84h3.76v19.44h-3.76v-19.44Z"/><path class="cls-66" d="m117.49,75.25c-.71-1.33-1.99-1.99-3.85-1.99-1.48,0-2.67.5-3.57,1.51-.91,1.01-1.36,2.6-1.36,4.77v10.12h-3.82v-19.44h3.37v2.32c.73-.91,1.64-1.61,2.72-2.11,1.08-.49,2.32-.74,3.71-.74,2.04,0,3.63.51,4.78,1.54,1.15,1.03,1.92,2.22,2.31,3.59s.59,2.71.59,4.03v10.8h-3.82v-9.56c0-1.91-.35-3.52-1.06-4.85Z"/><path class="cls-27" d="m136.79,88.64c-1.15-1.03-1.92-2.22-2.31-3.59-.4-1.37-.59-2.71-.59-4.03v-10.8h3.82v9.56c0,1.91.35,3.52,1.06,4.85.71,1.33,1.99,1.99,3.85,1.99,1.48,0,2.67-.5,3.57-1.51.91-1.01,1.36-2.6,1.36-4.77v-10.12h3.8v19.44h-3.35v-2.32c-.73.91-1.64,1.61-2.72,2.11-1.08.49-2.32.74-3.71.74-2.04,0-3.63-.51-4.78-1.54Z"/><path class="cls-79" d="m168.97,75.25c-.71-1.33-1.99-1.99-3.85-1.99-1.48,0-2.67.5-3.57,1.51-.91,1.01-1.36,2.6-1.36,4.77v10.12h-3.82v-19.44h3.37v2.32c.73-.91,1.64-1.61,2.72-2.11,1.08-.49,2.32-.74,3.71-.74,2.04,0,3.63.51,4.78,1.54,1.15,1.03,1.92,2.22,2.31,3.59s.59,2.71.59,4.03v10.8h-3.82v-9.56c0-1.91-.35-3.52-1.06-4.85Z"/><path class="cls-106" d="m176.73,70.22h3.8l5.17,14.72,5.17-14.72h3.8l-7.06,19.44h-3.82l-7.06-19.44Z"/><path class="cls-84" d="m200.72,88.93c-1.46-.85-2.6-2.03-3.41-3.56-.81-1.53-1.21-3.29-1.21-5.27,0-2.1.4-3.94,1.19-5.51.79-1.57,1.91-2.78,3.35-3.64,1.44-.85,3.1-1.28,4.99-1.28s3.47.41,4.82,1.24c1.36.83,2.4,2.01,3.12,3.55.73,1.54,1.09,3.36,1.09,5.46,0,.23-.01.58-.04,1.06h-14.49c.16,1.81.7,3.21,1.64,4.19.94.98,2.22,1.47,3.85,1.47,1.16,0,2.18-.26,3.04-.79.86-.53,1.54-1.3,2.02-2.3l3.69,1.17c-.74,1.72-1.88,3.06-3.42,4.02-1.54.97-3.25,1.45-5.15,1.45s-3.61-.42-5.08-1.27Zm10.04-10.86c-.2-1.72-.72-2.99-1.54-3.82-.82-.83-1.98-1.24-3.46-1.24-1.6,0-2.86.43-3.79,1.29-.93.86-1.52,2.11-1.75,3.77h10.55Z"/><path class="cls-48" d="m218.65,70.22h3.35v3.1c.48-.85,1.08-1.52,1.8-2,.54-.41,1.16-.71,1.87-.92s1.43-.31,2.16-.31c.4,0,.83.04,1.31.13v3.53c-.41-.12-.88-.18-1.42-.18-.5,0-1,.06-1.48.19s-.93.32-1.34.58c-1.63,1.04-2.45,2.88-2.45,5.51v9.81h-3.8v-19.44Z"/><path class="cls-41" d="m235.38,97.73c-1.37-.74-2.45-1.79-3.23-3.14l3.47-1.76c.41.79.99,1.39,1.76,1.79.76.4,1.6.6,2.51.6,1.62,0,2.87-.43,3.74-1.3.88-.86,1.3-2.12,1.28-3.78v-1.84c-1.43,1.26-3.21,1.89-5.35,1.89-1.76,0-3.31-.45-4.64-1.34-1.33-.89-2.36-2.12-3.08-3.68s-1.08-3.31-1.08-5.26.36-3.71,1.09-5.27,1.76-2.77,3.1-3.65c1.34-.88,2.9-1.32,4.69-1.32,1.19,0,2.26.2,3.22.59.96.4,1.79.96,2.5,1.69v-1.75h3.33v19.96c0,1.14-.08,2.1-.25,2.88-.4,1.92-1.34,3.36-2.84,4.33s-3.41,1.45-5.74,1.45c-1.61,0-3.1-.37-4.47-1.11Zm-.03-14.28c.4,1.03.99,1.85,1.79,2.45.8.6,1.78.9,2.94.9,1.78,0,3.1-.62,3.97-1.85s1.31-2.91,1.31-5.03-.43-3.77-1.29-5-2.15-1.85-3.86-1.85c-1.21,0-2.23.3-3.04.89-.82.59-1.42,1.41-1.82,2.44-.4,1.03-.59,2.2-.59,3.51s.2,2.5.59,3.53Z"/><path class="cls-112" d="m257.28,88.93c-1.46-.85-2.6-2.03-3.41-3.56-.81-1.53-1.21-3.29-1.21-5.27,0-2.1.4-3.94,1.19-5.51.79-1.57,1.91-2.78,3.35-3.64,1.44-.85,3.1-1.28,4.99-1.28s3.47.41,4.82,1.24c1.36.83,2.4,2.01,3.12,3.55.73,1.54,1.09,3.36,1.09,5.46,0,.23-.01.58-.04,1.06h-14.49c.16,1.81.7,3.21,1.64,4.19.94.98,2.22,1.47,3.85,1.47,1.16,0,2.18-.26,3.04-.79.86-.53,1.54-1.3,2.02-2.3l3.69,1.17c-.74,1.72-1.88,3.06-3.42,4.02-1.54.97-3.25,1.45-5.15,1.45s-3.61-.42-5.08-1.27Zm10.04-10.86c-.2-1.72-.72-2.99-1.54-3.82-.82-.83-1.98-1.24-3.46-1.24-1.6,0-2.86.43-3.79,1.29-.93.86-1.52,2.11-1.75,3.77h10.55Z"/><path class="cls-113" d="m276.86,88.62c-1.49-1.04-2.4-2.51-2.74-4.41l3.85-.59c.24,1.02.79,1.82,1.67,2.39.87.58,1.95.86,3.25.86,1.18,0,2.1-.24,2.76-.72.67-.48,1-1.14,1-1.98,0-.52-.12-.92-.36-1.21-.24-.29-.71-.57-1.41-.84-.7-.26-1.85-.61-3.45-1.04-1.7-.44-3.03-.91-3.99-1.4-.95-.49-1.64-1.06-2.06-1.72-.42-.65-.63-1.47-.63-2.44,0-1.16.31-2.19.94-3.07.62-.88,1.51-1.56,2.65-2.04s2.47-.72,3.98-.72,2.8.23,3.98.7c1.18.47,2.12,1.13,2.83,2,.71.86,1.14,1.87,1.29,3.01l-3.85.7c-.14-.96-.62-1.72-1.41-2.27s-1.83-.83-3.1-.83c-1.06,0-1.91.21-2.56.64-.65.43-.97.99-.97,1.68,0,.44.14.81.41,1.1.28.29.79.57,1.55.85s1.91.61,3.47,1.01c1.66.42,2.95.89,3.9,1.4.94.51,1.62,1.11,2.04,1.8.42.69.63,1.55.63,2.57,0,1.27-.31,2.37-.94,3.29s-1.54,1.63-2.72,2.12c-1.18.49-2.59.74-4.22.74-2.36,0-4.29-.52-5.78-1.57Z"/><path class="cls-23" d="m296.16,88.62c-1.49-1.04-2.4-2.51-2.74-4.41l3.85-.59c.24,1.02.79,1.82,1.67,2.39.87.58,1.95.86,3.25.86,1.18,0,2.1-.24,2.76-.72.67-.48,1-1.14,1-1.98,0-.52-.12-.92-.36-1.21-.24-.29-.71-.57-1.41-.84-.7-.26-1.85-.61-3.45-1.04-1.7-.44-3.03-.91-3.99-1.4-.95-.49-1.64-1.06-2.06-1.72-.42-.65-.63-1.47-.63-2.44,0-1.16.31-2.19.94-3.07.62-.88,1.51-1.56,2.65-2.04s2.47-.72,3.98-.72,2.8.23,3.98.7c1.18.47,2.12,1.13,2.83,2,.71.86,1.14,1.87,1.29,3.01l-3.85.7c-.14-.96-.62-1.72-1.41-2.27s-1.83-.83-3.1-.83c-1.06,0-1.91.21-2.56.64-.65.43-.97.99-.97,1.68,0,.44.14.81.41,1.1.28.29.79.57,1.55.85s1.91.61,3.47,1.01c1.66.42,2.95.89,3.9,1.4.94.51,1.62,1.11,2.04,1.8.42.69.63,1.55.63,2.57,0,1.27-.31,2.37-.94,3.29s-1.54,1.63-2.72,2.12c-1.18.49-2.59.74-4.22.74-2.36,0-4.29-.52-5.78-1.57Z"/><path class="cls-10" d="m314.16,63.74h3.76v25.92h-3.76v-25.92Z"/><path class="cls-54" d="m323.68,63.38h3.76v3.65h-3.76v-3.65Zm0,6.84h3.76v19.44h-3.76v-19.44Z"/><path class="cls-5" d="m336.12,88.89c-1.41-.88-2.49-2.09-3.23-3.64-.74-1.55-1.12-3.32-1.13-5.31.01-2,.4-3.78,1.16-5.34.76-1.55,1.85-2.76,3.28-3.63,1.42-.86,3.09-1.3,5.01-1.3,1.4,0,2.68.24,3.84.72s2.13,1.16,2.92,2.05c.79.89,1.34,1.94,1.67,3.15l-3.74,1.08c-.37-1.08-.98-1.93-1.83-2.54-.85-.61-1.82-.92-2.91-.92-1.78,0-3.12.61-4.02,1.83-.91,1.22-1.37,2.85-1.38,4.89.01,2.06.48,3.7,1.4,4.91s2.26,1.81,4,1.81c1.18,0,2.15-.27,2.91-.82.76-.55,1.35-1.35,1.75-2.42l3.82.9c-.64,1.91-1.69,3.37-3.15,4.37-1.46,1.01-3.24,1.51-5.33,1.51-1.94,0-3.62-.44-5.03-1.31Z"/><path class="cls-14" d="m365.89,75.25c-.71-1.33-1.99-1.99-3.85-1.99-1.48,0-2.67.5-3.57,1.51-.91,1.01-1.36,2.6-1.36,4.77v10.12h-3.82v-25.92h3.37v8.8c.73-.91,1.64-1.61,2.72-2.11,1.08-.49,2.32-.74,3.71-.74,2.04,0,3.63.51,4.78,1.54,1.15,1.03,1.92,2.22,2.31,3.59s.59,2.71.59,4.03v10.8h-3.82v-9.56c0-1.91-.35-3.52-1.06-4.85Z"/><path class="cls-102" d="m378.99,88.93c-1.46-.85-2.6-2.03-3.41-3.56-.81-1.53-1.21-3.29-1.21-5.27,0-2.1.4-3.94,1.19-5.51.79-1.57,1.91-2.78,3.35-3.64,1.44-.85,3.1-1.28,4.99-1.28s3.47.41,4.82,1.24c1.36.83,2.4,2.01,3.12,3.55.73,1.54,1.09,3.36,1.09,5.46,0,.23-.01.58-.04,1.06h-14.49c.16,1.81.7,3.21,1.64,4.19.94.98,2.22,1.47,3.85,1.47,1.16,0,2.18-.26,3.04-.79.86-.53,1.54-1.3,2.02-2.3l3.69,1.17c-.74,1.72-1.88,3.06-3.42,4.02-1.54.97-3.25,1.45-5.15,1.45s-3.61-.42-5.08-1.27Zm10.04-10.86c-.2-1.72-.72-2.99-1.54-3.82-.82-.83-1.98-1.24-3.46-1.24-1.6,0-2.86.43-3.79,1.29-.93.86-1.52,2.11-1.75,3.77h10.55Z"/><path class="cls-26" d="m398.57,88.62c-1.49-1.04-2.4-2.51-2.74-4.41l3.85-.59c.24,1.02.79,1.82,1.67,2.39.87.58,1.95.86,3.25.86,1.18,0,2.1-.24,2.76-.72.67-.48,1-1.14,1-1.98,0-.52-.12-.92-.36-1.21-.24-.29-.71-.57-1.41-.84-.7-.26-1.85-.61-3.45-1.04-1.7-.44-3.03-.91-3.99-1.4-.95-.49-1.64-1.06-2.06-1.72-.42-.65-.63-1.47-.63-2.44,0-1.16.31-2.19.94-3.07.62-.88,1.51-1.56,2.65-2.04s2.47-.72,3.98-.72,2.8.23,3.98.7c1.18.47,2.12,1.13,2.83,2,.71.86,1.14,1.87,1.29,3.01l-3.85.7c-.14-.96-.62-1.72-1.41-2.27s-1.83-.83-3.1-.83c-1.06,0-1.91.21-2.56.64-.65.43-.97.99-.97,1.68,0,.44.14.81.41,1.1.28.29.79.57,1.55.85s1.91.61,3.47,1.01c1.66.42,2.95.89,3.9,1.4.94.51,1.62,1.11,2.04,1.8.42.69.63,1.55.63,2.57,0,1.27-.31,2.37-.94,3.29s-1.54,1.63-2.72,2.12c-1.18.49-2.59.74-4.22.74-2.36,0-4.29-.52-5.78-1.57Z"/><path class="cls-63" d="m427.8,88.58c-1.82-1.08-3.24-2.64-4.27-4.67-1.03-2.03-1.55-4.44-1.55-7.21s.51-5.14,1.52-7.17c1.01-2.03,2.43-3.59,4.25-4.68,1.82-1.09,3.91-1.63,6.27-1.63,2.98,0,5.38.69,7.23,2.08,1.84,1.39,3.1,3.36,3.79,5.91l-3.82.68c-.54-1.6-1.41-2.85-2.61-3.75-1.2-.91-2.68-1.36-4.45-1.36s-3.29.41-4.52,1.24c-1.22.83-2.14,1.99-2.75,3.48-.61,1.49-.92,3.24-.92,5.25s.31,3.74.94,5.22,1.57,2.62,2.83,3.43c1.25.81,2.79,1.21,4.62,1.21,2.17,0,3.89-.63,5.14-1.9s2.01-3.1,2.28-5.5h-5.04v-3.02h9.04c.05.4.07.91.07,1.53,0,2.42-.47,4.58-1.4,6.46-.93,1.88-2.29,3.36-4.07,4.42-1.78,1.06-3.9,1.59-6.36,1.59-2.33,0-4.4-.54-6.22-1.62Z"/><path class="cls-85" d="m452.99,88.93c-1.46-.85-2.6-2.03-3.41-3.56-.81-1.53-1.21-3.29-1.21-5.27,0-2.1.4-3.94,1.19-5.51.79-1.57,1.91-2.78,3.35-3.64,1.44-.85,3.1-1.28,4.99-1.28s3.47.41,4.82,1.24c1.36.83,2.4,2.01,3.12,3.55.73,1.54,1.09,3.36,1.09,5.46,0,.23-.01.58-.04,1.06h-14.49c.16,1.81.7,3.21,1.64,4.19.94.98,2.22,1.47,3.85,1.47,1.16,0,2.18-.26,3.04-.79.86-.53,1.54-1.3,2.02-2.3l3.69,1.17c-.74,1.72-1.88,3.06-3.42,4.02-1.54.97-3.25,1.45-5.15,1.45s-3.61-.42-5.08-1.27Zm10.04-10.86c-.2-1.72-.72-2.99-1.54-3.82-.82-.83-1.98-1.24-3.46-1.24-1.6,0-2.86.43-3.79,1.29-.93.86-1.52,2.11-1.75,3.77h10.55Z"/><path class="cls-101" d="m472.57,88.62c-1.49-1.04-2.4-2.51-2.74-4.41l3.85-.59c.24,1.02.79,1.82,1.67,2.39.87.58,1.95.86,3.25.86,1.18,0,2.1-.24,2.76-.72.67-.48,1-1.14,1-1.98,0-.52-.12-.92-.36-1.21-.24-.29-.71-.57-1.41-.84-.7-.26-1.85-.61-3.45-1.04-1.7-.44-3.03-.91-3.99-1.4-.95-.49-1.64-1.06-2.06-1.72-.42-.65-.63-1.47-.63-2.44,0-1.16.31-2.19.94-3.07.62-.88,1.51-1.56,2.65-2.04s2.47-.72,3.98-.72,2.8.23,3.98.7c1.18.47,2.12,1.13,2.83,2,.71.86,1.14,1.87,1.29,3.01l-3.85.7c-.14-.96-.62-1.72-1.41-2.27s-1.83-.83-3.1-.83c-1.06,0-1.91.21-2.56.64-.65.43-.97.99-.97,1.68,0,.44.14.81.41,1.1.28.29.79.57,1.55.85s1.91.61,3.47,1.01c1.66.42,2.95.89,3.9,1.4.94.51,1.62,1.11,2.04,1.8.42.69.63,1.55.63,2.57,0,1.27-.31,2.37-.94,3.29s-1.54,1.63-2.72,2.12c-1.18.49-2.59.74-4.22.74-2.36,0-4.29-.52-5.78-1.57Z"/><path class="cls-82" d="m493.5,88.89c-1.41-.88-2.49-2.09-3.23-3.64-.74-1.55-1.12-3.32-1.13-5.31.01-2,.4-3.78,1.16-5.34.76-1.55,1.85-2.76,3.28-3.63,1.42-.86,3.09-1.3,5.01-1.3,1.4,0,2.68.24,3.84.72s2.13,1.16,2.92,2.05c.79.89,1.34,1.94,1.67,3.15l-3.74,1.08c-.37-1.08-.98-1.93-1.83-2.54-.85-.61-1.82-.92-2.91-.92-1.78,0-3.12.61-4.02,1.83-.91,1.22-1.37,2.85-1.38,4.89.01,2.06.48,3.7,1.4,4.91s2.26,1.81,4,1.81c1.18,0,2.15-.27,2.91-.82.76-.55,1.35-1.35,1.75-2.42l3.82.9c-.64,1.91-1.69,3.37-3.15,4.37-1.46,1.01-3.24,1.51-5.33,1.51-1.94,0-3.62-.44-5.03-1.31Z"/><path class="cls-65" d="m523.26,75.25c-.71-1.33-1.99-1.99-3.85-1.99-1.48,0-2.67.5-3.57,1.51-.91,1.01-1.36,2.6-1.36,4.77v10.12h-3.82v-25.92h3.37v8.8c.73-.91,1.64-1.61,2.72-2.11,1.08-.49,2.32-.74,3.71-.74,2.04,0,3.63.51,4.78,1.54,1.15,1.03,1.92,2.22,2.31,3.59s.59,2.71.59,4.03v10.8h-3.82v-9.56c0-1.91-.35-3.52-1.06-4.85Z"/><path class="cls-114" d="m536.36,88.93c-1.46-.85-2.6-2.03-3.41-3.56-.81-1.53-1.21-3.29-1.21-5.27,0-2.1.4-3.94,1.19-5.51.79-1.57,1.91-2.78,3.35-3.64,1.44-.85,3.1-1.28,4.99-1.28s3.47.41,4.82,1.24c1.36.83,2.4,2.01,3.12,3.55.73,1.54,1.09,3.36,1.09,5.46,0,.23-.01.58-.04,1.06h-14.49c.16,1.81.7,3.21,1.64,4.19.94.98,2.22,1.47,3.85,1.47,1.16,0,2.18-.26,3.04-.79.86-.53,1.54-1.3,2.02-2.3l3.69,1.17c-.74,1.72-1.88,3.06-3.42,4.02-1.54.97-3.25,1.45-5.15,1.45s-3.61-.42-5.08-1.27Zm10.04-10.86c-.2-1.72-.72-2.99-1.54-3.82-.82-.83-1.98-1.24-3.46-1.24-1.6,0-2.86.43-3.79,1.29-.93.86-1.52,2.11-1.75,3.77h10.55Z"/><path class="cls-91" d="m566.33,75.25c-.71-1.33-1.99-1.99-3.85-1.99-1.48,0-2.67.5-3.57,1.51-.91,1.01-1.36,2.6-1.36,4.77v10.12h-3.82v-19.44h3.37v2.32c.73-.91,1.64-1.61,2.72-2.11,1.08-.49,2.32-.74,3.71-.74,2.04,0,3.63.51,4.78,1.54,1.15,1.03,1.92,2.22,2.31,3.59s.59,2.71.59,4.03v10.8h-3.82v-9.56c0-1.91-.35-3.52-1.06-4.85Z"/><path class="cls-22" d="m575.89,63.74h3.82v15.84l7.63-9.36h4.79l-8.06,9.72,8.89,9.72h-5.11l-8.14-9.36v9.36h-3.83l.02-25.92Z"/><path class="cls-98" d="m603.8,67.75c.04-.49.15-1,.33-1.53.18-.53.46-1,.85-1.42.46-.5.97-.87,1.54-1.11.57-.23,1.11-.38,1.61-.42.5-.05,1.12-.07,1.84-.07h2.45v3.1h-2.27c-.89,0-1.55.22-1.99.65-.44.43-.66,1.06-.66,1.87v1.4h4.91v3.02h-4.91v16.42h-3.76v-16.42h-3.22v-3.02h3.22v-.68c0-.7.02-1.29.06-1.78Z"/><path class="cls-100" d="m617.84,88.64c-1.15-1.03-1.92-2.22-2.31-3.59-.4-1.37-.59-2.71-.59-4.03v-10.8h3.82v9.56c0,1.91.35,3.52,1.06,4.85.71,1.33,1.99,1.99,3.85,1.99,1.48,0,2.67-.5,3.57-1.51.91-1.01,1.36-2.6,1.36-4.77v-10.12h3.8v19.44h-3.35v-2.32c-.73.91-1.64,1.61-2.72,2.11-1.08.49-2.32.74-3.71.74-2.04,0-3.63-.51-4.78-1.54Zm.39-25.28h3.6v3.6h-3.6v-3.6Zm7.25,0h3.6v3.6h-3.6v-3.6Z"/><path class="cls-55" d="m637.43,70.22h3.35v3.1c.48-.85,1.08-1.52,1.8-2,.54-.41,1.16-.71,1.87-.92s1.43-.31,2.16-.31c.4,0,.83.04,1.31.13v3.53c-.41-.12-.88-.18-1.42-.18-.5,0-1,.06-1.48.19s-.93.32-1.34.58c-1.63,1.04-2.45,2.88-2.45,5.51v9.81h-3.8v-19.44Z"/><path class="cls-38" d="m661.62,88.86c-1.33-.89-2.36-2.12-3.08-3.68s-1.08-3.31-1.08-5.26.36-3.71,1.09-5.27,1.76-2.77,3.1-3.65c1.34-.88,2.9-1.32,4.69-1.32,2.11,0,3.88.62,5.29,1.87v-7.81h3.78v25.92h-3.35v-1.76c-.72.74-1.57,1.31-2.54,1.71-.97.4-2.06.59-3.26.59-1.76,0-3.31-.45-4.64-1.34Zm.43-5.41c.4,1.03.99,1.85,1.79,2.45.8.6,1.78.9,2.94.9,1.78,0,3.1-.62,3.97-1.85s1.3-2.91,1.3-5.03-.43-3.77-1.29-5-2.14-1.85-3.86-1.85c-1.21,0-2.22.3-3.04.89-.82.59-1.42,1.41-1.82,2.44-.4,1.03-.59,2.2-.59,3.51s.2,2.5.59,3.53Z"/><path class="cls-94" d="m680.81,63.38h3.76v3.65h-3.76v-3.65Zm0,6.84h3.76v19.44h-3.76v-19.44Z"/><path class="cls-73" d="m693.26,88.89c-1.41-.88-2.49-2.09-3.23-3.64-.74-1.55-1.12-3.32-1.13-5.31.01-2,.4-3.78,1.16-5.34.76-1.55,1.85-2.76,3.28-3.63,1.42-.86,3.09-1.3,5.01-1.3,1.4,0,2.69.24,3.84.72,1.16.48,2.13,1.16,2.92,2.05.79.89,1.34,1.94,1.67,3.15l-3.74,1.08c-.37-1.08-.98-1.93-1.83-2.54-.85-.61-1.82-.92-2.91-.92-1.78,0-3.12.61-4.02,1.83-.91,1.22-1.37,2.85-1.38,4.89.01,2.06.48,3.7,1.4,4.91s2.26,1.81,4,1.81c1.18,0,2.14-.27,2.91-.82.76-.55,1.35-1.35,1.75-2.42l3.82.9c-.64,1.91-1.69,3.37-3.15,4.37-1.46,1.01-3.24,1.51-5.33,1.51-1.94,0-3.62-.44-5.03-1.31Z"/><path class="cls-33" d="m723.02,75.25c-.71-1.33-1.99-1.99-3.85-1.99-1.48,0-2.67.5-3.57,1.51-.91,1.01-1.36,2.6-1.36,4.77v10.12h-3.82v-25.92h3.37v8.8c.73-.91,1.64-1.61,2.72-2.11,1.08-.49,2.32-.74,3.71-.74,2.04,0,3.63.51,4.78,1.54,1.15,1.03,1.92,2.22,2.31,3.59.4,1.37.59,2.71.59,4.03v10.8h-3.82v-9.56c0-1.91-.35-3.52-1.06-4.85Z"/><path class="cls-24" d="m733.87,91.81c.31-.37.46-.88.46-1.54,0-.12-.01-.32-.04-.61h-2.07v-4.34h3.98v4.7c0,1.27-.27,2.26-.8,2.97-.53.71-1.3,1.06-2.31,1.06-.24,0-.53-.03-.86-.09l.23-1.67c.64.05,1.11-.11,1.41-.48Z"/><path class="cls-52" d="m752.78,88.64c-1.15-1.03-1.92-2.22-2.31-3.59-.4-1.37-.59-2.71-.59-4.03v-10.8h3.82v9.56c0,1.91.35,3.52,1.06,4.85.71,1.33,1.99,1.99,3.85,1.99,1.48,0,2.67-.5,3.57-1.51.91-1.01,1.36-2.6,1.36-4.77v-10.12h3.8v19.44h-3.35v-2.32c-.73.91-1.64,1.61-2.72,2.11-1.08.49-2.32.74-3.71.74-2.04,0-3.63-.51-4.78-1.54Z"/><path class="cls-95" d="m795.2,75.17c-.32-.67-.78-1.19-1.38-1.55s-1.28-.54-2.06-.54c-.73,0-1.4.17-2,.5-.6.34-1.08.84-1.43,1.5-.35.67-.53,1.47-.53,2.42l-.02,12.15h-3.76l.02-12.04c0-.92-.16-1.73-.49-2.41s-.78-1.21-1.38-1.57c-.59-.37-1.29-.55-2.08-.55s-1.47.19-2.07.56c-.6.37-1.07.89-1.39,1.56-.33.67-.5,1.44-.5,2.31v12.15h-3.78v-19.44h3.35v2.09c.64-.8,1.44-1.43,2.4-1.89.97-.46,2.03-.68,3.18-.68,1.32,0,2.46.28,3.42.83.96.55,1.7,1.33,2.23,2.32.6-.98,1.42-1.75,2.46-2.31s2.19-.84,3.45-.84c1.37,0,2.55.29,3.55.85s1.75,1.37,2.28,2.41c.52,1.04.78,2.25.78,3.65l-.02,13.01h-3.76l.02-12.11c0-.91-.16-1.7-.49-2.38Z"/><path class="cls-47" d="m811.33,63.74h16.56v3.55h-12.8v7.27h10.64v3.55h-10.64v8.01h12.8v3.55h-16.56v-25.92Z"/><path class="cls-16" d="m832.21,70.22h3.35v3.1c.48-.85,1.08-1.52,1.8-2,.54-.41,1.16-.71,1.87-.92s1.43-.31,2.16-.31c.4,0,.83.04,1.31.13v3.53c-.41-.12-.88-.18-1.42-.18-.5,0-1,.06-1.48.19-.49.13-.93.32-1.34.58-1.63,1.04-2.45,2.88-2.45,5.51v9.81h-3.8v-19.44Z"/><path class="cls-61" d="m846.48,63.38h3.76v3.65h-3.76v-3.65Zm0,6.84h3.76v19.44h-3.76v-19.44Z"/><path class="cls-87" d="m868.22,75.25c-.71-1.33-1.99-1.99-3.85-1.99-1.48,0-2.67.5-3.57,1.51-.91,1.01-1.36,2.6-1.36,4.77v10.12h-3.82v-19.44h3.37v2.32c.73-.91,1.64-1.61,2.72-2.11,1.08-.49,2.32-.74,3.71-.74,2.04,0,3.63.51,4.78,1.54,1.15,1.03,1.92,2.22,2.31,3.59.4,1.37.59,2.71.59,4.03v10.8h-3.82v-9.56c0-1.91-.35-3.52-1.06-4.85Z"/><path class="cls-8" d="m890.36,75.25c-.71-1.33-1.99-1.99-3.85-1.99-1.48,0-2.67.5-3.57,1.51-.91,1.01-1.36,2.6-1.36,4.77v10.12h-3.82v-19.44h3.37v2.32c.73-.91,1.64-1.61,2.72-2.11,1.08-.49,2.32-.74,3.71-.74,2.04,0,3.63.51,4.78,1.54,1.15,1.03,1.92,2.22,2.31,3.59.4,1.37.59,2.71.59,4.03v10.8h-3.82v-9.56c0-1.91-.35-3.52-1.06-4.85Z"/><path class="cls-107" d="m903.23,88.93c-1.46-.85-2.6-2.03-3.41-3.56-.81-1.53-1.21-3.29-1.21-5.27,0-2.1.4-3.94,1.19-5.51.79-1.57,1.91-2.78,3.35-3.64,1.44-.85,3.1-1.28,4.99-1.28s3.47.41,4.82,1.24c1.36.83,2.4,2.01,3.12,3.55.73,1.54,1.09,3.36,1.09,5.46,0,.23-.01.58-.04,1.06h-14.49c.16,1.81.7,3.21,1.64,4.19.94.98,2.22,1.47,3.85,1.47,1.16,0,2.18-.26,3.04-.79s1.54-1.3,2.02-2.3l3.69,1.17c-.74,1.72-1.88,3.06-3.42,4.02s-3.25,1.45-5.15,1.45-3.61-.42-5.08-1.27Zm10.04-10.86c-.2-1.72-.72-2.99-1.54-3.82-.82-.83-1.98-1.24-3.46-1.24-1.6,0-2.86.43-3.79,1.29-.93.86-1.52,2.11-1.76,3.77h10.55Z"/><path class="cls-70" d="m921.16,70.22h3.35v3.1c.48-.85,1.08-1.52,1.8-2,.54-.41,1.16-.71,1.87-.92s1.43-.31,2.16-.31c.4,0,.83.04,1.31.13v3.53c-.41-.12-.88-.18-1.42-.18-.5,0-1,.06-1.48.19-.49.13-.93.32-1.34.58-1.63,1.04-2.45,2.88-2.45,5.51v9.81h-3.8v-19.44Z"/><path class="cls-111" d="m937.62,88.64c-1.15-1.03-1.92-2.22-2.31-3.59-.4-1.37-.59-2.71-.59-4.03v-10.8h3.82v9.56c0,1.91.35,3.52,1.06,4.85.71,1.33,1.99,1.99,3.85,1.99,1.48,0,2.67-.5,3.57-1.51.91-1.01,1.36-2.6,1.36-4.77v-10.12h3.8v19.44h-3.35v-2.32c-.73.91-1.64,1.61-2.72,2.11-1.08.49-2.32.74-3.71.74-2.04,0-3.63-.51-4.78-1.54Z"/><path class="cls-109" d="m969.8,75.25c-.71-1.33-1.99-1.99-3.85-1.99-1.48,0-2.67.5-3.57,1.51-.91,1.01-1.36,2.6-1.36,4.77v10.12h-3.82v-19.44h3.37v2.32c.73-.91,1.64-1.61,2.72-2.11,1.08-.49,2.32-.74,3.71-.74,2.04,0,3.63.51,4.78,1.54,1.15,1.03,1.92,2.22,2.31,3.59.4,1.37.59,2.71.59,4.03v10.8h-3.82v-9.56c0-1.91-.35-3.52-1.06-4.85Z"/><path class="cls-34" d="m982.89,97.73c-1.37-.74-2.45-1.79-3.23-3.14l3.47-1.76c.41.79.99,1.39,1.75,1.79.76.4,1.6.6,2.51.6,1.62,0,2.87-.43,3.74-1.3.88-.86,1.3-2.12,1.28-3.78v-1.84c-1.43,1.26-3.21,1.89-5.35,1.89-1.76,0-3.31-.45-4.64-1.34-1.33-.89-2.36-2.12-3.08-3.68-.72-1.56-1.08-3.31-1.08-5.26s.36-3.71,1.09-5.27c.73-1.55,1.76-2.77,3.1-3.65,1.34-.88,2.9-1.32,4.69-1.32,1.19,0,2.26.2,3.22.59s1.79.96,2.5,1.69v-1.75h3.33v19.96c0,1.14-.08,2.1-.25,2.88-.4,1.92-1.34,3.36-2.84,4.33-1.5.97-3.42,1.45-5.74,1.45-1.61,0-3.1-.37-4.47-1.11Zm-.03-14.28c.4,1.03.99,1.85,1.79,2.45.8.6,1.78.9,2.94.9,1.78,0,3.1-.62,3.97-1.85.87-1.23,1.3-2.91,1.3-5.03s-.43-3.77-1.29-5c-.86-1.23-2.15-1.85-3.86-1.85-1.21,0-2.23.3-3.04.89-.82.59-1.42,1.41-1.82,2.44-.4,1.03-.59,2.2-.59,3.51s.2,2.5.59,3.53Z"/><path class="cls-51" d="m1004.79,88.93c-1.46-.85-2.6-2.03-3.41-3.56-.81-1.53-1.21-3.29-1.21-5.27,0-2.1.4-3.94,1.19-5.51.79-1.57,1.91-2.78,3.35-3.64,1.44-.85,3.1-1.28,4.99-1.28s3.47.41,4.82,1.24c1.36.83,2.4,2.01,3.12,3.55.73,1.54,1.09,3.36,1.09,5.46,0,.23-.01.58-.04,1.06h-14.49c.16,1.81.7,3.21,1.64,4.19.94.98,2.22,1.47,3.85,1.47,1.16,0,2.18-.26,3.04-.79s1.54-1.3,2.02-2.3l3.69,1.17c-.74,1.72-1.88,3.06-3.42,4.02s-3.25,1.45-5.15,1.45-3.61-.42-5.08-1.27Zm10.04-10.86c-.2-1.72-.72-2.99-1.54-3.82-.82-.83-1.98-1.24-3.46-1.24-1.6,0-2.86.43-3.79,1.29-.93.86-1.52,2.11-1.76,3.77h10.55Z"/><path class="cls-42" d="m1034.76,75.25c-.71-1.33-1.99-1.99-3.85-1.99-1.48,0-2.67.5-3.57,1.51-.91,1.01-1.36,2.6-1.36,4.77v10.12h-3.82v-19.44h3.37v2.32c.73-.91,1.64-1.61,2.72-2.11,1.08-.49,2.32-.74,3.71-.74,2.04,0,3.63.51,4.78,1.54,1.15,1.03,1.92,2.22,2.31,3.59.4,1.37.59,2.71.59,4.03v10.8h-3.82v-9.56c0-1.91-.35-3.52-1.06-4.85Z"/><path class="cls-3" d="m1049.72,89.06l11.03-15.48h-10.03v-3.37h16v.61l-11.02,15.46h10.48v3.37h-16.47v-.59Z"/><path class="cls-21" d="m1073.23,88.64c-1.15-1.03-1.92-2.22-2.31-3.59-.4-1.37-.59-2.71-.59-4.03v-10.8h3.82v9.56c0,1.91.35,3.52,1.06,4.85.71,1.33,1.99,1.99,3.85,1.99,1.48,0,2.67-.5,3.57-1.51.91-1.01,1.36-2.6,1.36-4.77v-10.12h3.8v19.44h-3.35v-2.32c-.73.91-1.64,1.61-2.72,2.11-1.08.49-2.32.74-3.71.74-2.04,0-3.63-.51-4.78-1.54Z"/><path class="cls-29" d="m1101.68,88.62c-1.49-1.04-2.4-2.51-2.74-4.41l3.85-.59c.24,1.02.79,1.82,1.67,2.39.87.58,1.95.86,3.25.86,1.18,0,2.1-.24,2.76-.72s1-1.14,1-1.98c0-.52-.12-.92-.36-1.21-.24-.29-.71-.57-1.41-.84-.7-.26-1.85-.61-3.45-1.04-1.7-.44-3.03-.91-3.99-1.4-.95-.49-1.64-1.06-2.06-1.72-.42-.65-.63-1.47-.63-2.44,0-1.16.31-2.19.94-3.07.62-.88,1.51-1.56,2.65-2.04,1.14-.48,2.47-.72,3.98-.72s2.8.23,3.98.7c1.18.47,2.12,1.13,2.83,2,.71.86,1.14,1.87,1.29,3.01l-3.85.7c-.14-.96-.62-1.72-1.41-2.27s-1.83-.83-3.1-.83c-1.06,0-1.91.21-2.56.64-.65.43-.97.99-.97,1.68,0,.44.14.81.41,1.1.28.29.79.57,1.55.85s1.91.61,3.47,1.01c1.66.42,2.96.89,3.9,1.4.94.51,1.62,1.11,2.04,1.8.42.69.63,1.55.63,2.57,0,1.27-.31,2.37-.95,3.29-.63.92-1.54,1.63-2.72,2.12-1.18.49-2.59.74-4.22.74-2.36,0-4.29-.52-5.78-1.57Z"/><path class="cls-69" d="m1122.61,88.89c-1.41-.88-2.49-2.09-3.23-3.64-.74-1.55-1.12-3.32-1.13-5.31.01-2,.4-3.78,1.16-5.34.76-1.55,1.85-2.76,3.28-3.63,1.42-.86,3.09-1.3,5.01-1.3,1.4,0,2.69.24,3.84.72,1.16.48,2.13,1.16,2.92,2.05.79.89,1.34,1.94,1.67,3.15l-3.74,1.08c-.37-1.08-.98-1.93-1.83-2.54-.85-.61-1.82-.92-2.91-.92-1.78,0-3.12.61-4.02,1.83-.91,1.22-1.37,2.85-1.38,4.89.01,2.06.48,3.7,1.4,4.91s2.26,1.81,4,1.81c1.18,0,2.14-.27,2.91-.82.76-.55,1.35-1.35,1.75-2.42l3.82.9c-.64,1.91-1.69,3.37-3.15,4.37-1.46,1.01-3.24,1.51-5.33,1.51-1.94,0-3.62-.44-5.03-1.31Z"/><path class="cls-71" d="m1152.37,75.25c-.71-1.33-1.99-1.99-3.85-1.99-1.48,0-2.67.5-3.57,1.51-.91,1.01-1.36,2.6-1.36,4.77v10.12h-3.82v-25.92h3.37v8.8c.73-.91,1.64-1.61,2.72-2.11,1.08-.49,2.32-.74,3.71-.74,2.04,0,3.63.51,4.78,1.54,1.15,1.03,1.92,2.22,2.31,3.59.4,1.37.59,2.71.59,4.03v10.8h-3.82v-9.56c0-1.91-.35-3.52-1.06-4.85Z"/><path class="cls-15" d="m1163.85,89.42c-.98-.52-1.73-1.22-2.24-2.11-.51-.88-.76-1.86-.76-2.94,0-2.87,1.53-4.79,4.59-5.76.92-.28,1.97-.51,3.14-.71,1.17-.2,2.79-.44,4.87-.73l.59-.07c-.06-1.37-.43-2.37-1.12-3-.68-.63-1.78-.94-3.28-.94-1.09,0-2.05.25-2.88.76s-1.4,1.27-1.71,2.3l-3.51-1.08c.48-1.72,1.41-3.05,2.78-4.01,1.37-.96,3.16-1.44,5.36-1.44,1.79,0,3.32.31,4.59.92,1.27.61,2.2,1.54,2.79,2.79.28.59.46,1.21.55,1.88s.13,1.47.13,2.42v11.97h-3.33v-2.83c-.8,1.14-1.78,1.99-2.92,2.54-1.15.55-2.5.83-4.08.83-1.39,0-2.58-.26-3.56-.78Zm1.61-3.09c.59.53,1.47.79,2.62.79,1.02,0,1.92-.18,2.7-.55s1.41-.84,1.88-1.43c.47-.59.79-1.21.95-1.87.24-.7.37-1.71.4-3.04l-.47.07c-1.75.25-3.06.46-3.93.61-.87.16-1.65.34-2.35.54-.84.29-1.5.66-1.97,1.12-.47.46-.71,1.04-.71,1.76,0,.8.3,1.47.89,2Z"/><path class="cls-108" d="m1184.27,67.75c.04-.49.15-1,.33-1.53.18-.53.46-1,.85-1.42.46-.5.97-.87,1.54-1.11.57-.23,1.11-.38,1.61-.42.5-.05,1.12-.07,1.84-.07h2.45v3.1h-2.27c-.89,0-1.55.22-1.99.65-.44.43-.66,1.06-.66,1.87v1.4h8.01v-.68c0-.7.02-1.29.06-1.78s.15-1,.33-1.53c.18-.53.46-1,.85-1.42.46-.5.97-.87,1.54-1.11.57-.23,1.11-.38,1.61-.42.5-.05,1.12-.07,1.84-.07h2.45v3.1h-2.27c-.89,0-1.55.22-1.99.65-.44.43-.66,1.06-.66,1.87v1.4h4.91v3.02h-4.91v16.42h-3.76v-16.42h-8.01v16.42h-3.76v-16.42h-3.22v-3.02h3.22v-.68c0-.7.02-1.29.06-1.78Z"/><path class="cls-11" d="m1210.36,88.93c-1.46-.85-2.6-2.03-3.41-3.56-.81-1.53-1.21-3.29-1.21-5.27,0-2.1.4-3.94,1.19-5.51.79-1.57,1.91-2.78,3.35-3.64,1.44-.85,3.1-1.28,4.99-1.28s3.47.41,4.82,1.24c1.36.83,2.4,2.01,3.12,3.55.73,1.54,1.09,3.36,1.09,5.46,0,.23-.01.58-.04,1.06h-14.49c.16,1.81.7,3.21,1.64,4.19.94.98,2.22,1.47,3.85,1.47,1.16,0,2.18-.26,3.04-.79s1.54-1.3,2.02-2.3l3.69,1.17c-.74,1.72-1.88,3.06-3.42,4.02s-3.25,1.45-5.15,1.45-3.61-.42-5.08-1.27Zm10.04-10.86c-.2-1.72-.72-2.99-1.54-3.82-.82-.83-1.98-1.24-3.46-1.24-1.6,0-2.86.43-3.79,1.29-.93.86-1.52,2.11-1.76,3.77h10.55Z"/><path class="cls-49" d="m1240.33,75.25c-.71-1.33-1.99-1.99-3.85-1.99-1.48,0-2.67.5-3.57,1.51-.91,1.01-1.36,2.6-1.36,4.77v10.12h-3.82v-19.44h3.37v2.32c.73-.91,1.64-1.61,2.72-2.11,1.08-.49,2.32-.74,3.71-.74,2.04,0,3.63.51,4.78,1.54,1.15,1.03,1.92,2.22,2.31,3.59.4,1.37.59,2.71.59,4.03v10.8h-3.82v-9.56c0-1.91-.35-3.52-1.06-4.85Z"/><text class="cls-19" transform="translate(1408.32 394.18) rotate(-90)"><tspan x="0" y="0">Reisegutschei</tspan><tspan class="cls-110" x="238.86" y="0">n</tspan><tspan x="260.11" y="0">e </tspan></text><path class="cls-30" d="m1382.4,391.66v-10.01c0-.64.05-1.24.14-1.82.2-1.32.67-2.46,1.4-3.41.73-.96,1.66-1.68,2.78-2.17s2.36-.74,3.72-.74c1.73,0,3.25.39,4.55,1.18,1.31.79,2.25,1.9,2.83,3.34l10.49-5.11v3.04l-9.85,4.77v8.28h9.85v2.65h-25.92Zm13.55-9.94c0-.6-.05-1.13-.16-1.6-.18-.85-.54-1.57-1.06-2.15s-1.17-1.02-1.92-1.3c-.75-.29-1.54-.43-2.37-.43s-1.62.14-2.37.43c-.75.29-1.39.72-1.93,1.3s-.89,1.3-1.07,2.15c-.1.48-.14,1.01-.14,1.6v7.29h11.02v-7.29Z"/><path class="cls-58" d="m1407.6,365.65c-.84,1.4-2.02,2.49-3.55,3.25-1.53.76-3.31,1.14-5.35,1.14s-3.93-.38-5.49-1.12-2.76-1.82-3.6-3.21c-.84-1.38-1.26-3.01-1.26-4.87s.42-3.46,1.25-4.8c.83-1.34,2.03-2.36,3.6-3.08,1.57-.71,3.43-1.07,5.59-1.07h.56v15.32c2.23-.11,3.96-.71,5.17-1.82,1.21-1.1,1.82-2.62,1.82-4.55,0-1.38-.32-2.59-.96-3.63-.64-1.04-1.57-1.87-2.78-2.47l.95-2.47c1.69.77,3,1.9,3.93,3.38.93,1.49,1.4,3.18,1.4,5.08s-.42,3.51-1.26,4.91Zm-10.47-10.98c-2.1.19-3.68.8-4.75,1.84-1.07,1.03-1.6,2.46-1.6,4.27s.55,3.34,1.64,4.44c1.09,1.1,2.66,1.75,4.72,1.95v-12.49Z"/><path class="cls-60" d="m1382.22,347.56v-2.65h2.97v2.65h-2.97Zm6.66,0v-2.65h19.44v2.65h-19.44Z"/><path class="cls-44" d="m1408.18,336.29c-.44,1.18-1.08,2.13-1.92,2.87s-1.83,1.21-3,1.43l-.45-2.7c1.12-.28,2-.93,2.65-1.96.65-1.03.97-2.3.97-3.82s-.31-2.64-.93-3.49c-.62-.85-1.46-1.28-2.53-1.28-.62,0-1.12.14-1.49.42-.37.28-.7.81-1.02,1.59s-.7,2.03-1.17,3.74c-.48,1.79-.96,3.17-1.45,4.16-.49.98-1.04,1.69-1.66,2.11-.62.42-1.39.63-2.31.63-1.09,0-2.06-.31-2.9-.93s-1.49-1.48-1.95-2.6c-.46-1.12-.69-2.4-.69-3.85s.24-2.76.71-3.92c.47-1.16,1.14-2.1,2-2.81.86-.71,1.85-1.13,2.96-1.26l.49,2.7c-1.16.19-2.08.78-2.74,1.76-.67.98-1,2.23-1,3.74,0,.88.13,1.65.38,2.33s.61,1.21,1.06,1.58c.46.38.98.57,1.57.57.54,0,.99-.16,1.34-.48.35-.32.69-.88,1.01-1.67.32-.8.67-1.98,1.07-3.54.47-1.82.95-3.24,1.45-4.24s1.09-1.72,1.76-2.15c.68-.43,1.53-.65,2.55-.65,1.21,0,2.26.3,3.15.92.89.61,1.57,1.49,2.04,2.65.47,1.15.71,2.52.71,4.1s-.22,2.86-.67,4.03Z"/><path class="cls-67" d="m1407.6,317.3c-.84,1.4-2.02,2.49-3.55,3.25-1.53.76-3.31,1.14-5.35,1.14s-3.93-.38-5.49-1.12-2.76-1.82-3.6-3.2c-.84-1.39-1.26-3.01-1.26-4.87s.42-3.46,1.25-4.8c.83-1.34,2.03-2.36,3.6-3.08s3.43-1.07,5.59-1.07h.56v15.32c2.23-.11,3.96-.71,5.17-1.82,1.21-1.1,1.82-2.62,1.82-4.55,0-1.38-.32-2.59-.96-3.64s-1.57-1.87-2.78-2.47l.95-2.46c1.69.77,3,1.9,3.93,3.38s1.4,3.18,1.4,5.08-.42,3.51-1.26,4.91Zm-10.47-10.98c-2.1.19-3.68.8-4.75,1.84-1.07,1.03-1.6,2.45-1.6,4.27s.55,3.34,1.64,4.44,2.66,1.75,4.72,1.95v-12.49Z"/><path class="cls-74" d="m1416.44,296.29c-.71,1.36-1.78,2.44-3.22,3.23l-1.33-2.39c1.02-.5,1.78-1.23,2.29-2.19.5-.96.76-1.98.76-3.09,0-2.06-.57-3.56-1.71-4.5-1.14-.94-2.88-1.4-5.2-1.39h-2c.91.72,1.62,1.59,2.11,2.61.49,1.02.74,2.17.74,3.46,0,1.78-.44,3.32-1.33,4.62-.89,1.3-2.11,2.29-3.67,2.98-1.56.68-3.32,1.03-5.27,1.03s-3.69-.34-5.25-1.03c-1.55-.68-2.78-1.67-3.66-2.96-.89-1.29-1.33-2.8-1.33-4.53,0-1.4.28-2.65.84-3.74.56-1.09,1.35-2,2.38-2.74h-2.68v-2.36h19.17c1.19,0,2.22.07,3.1.22,4.24.68,6.35,3.46,6.35,8.33,0,1.6-.35,3.08-1.06,4.44Zm-13.83.86c1.18-.46,2.11-1.15,2.78-2.06s1.01-2.02,1.01-3.33-.33-2.47-1-3.38-1.58-1.59-2.75-2.04c-1.17-.45-2.52-.67-4.06-.67s-2.91.22-4.08.67-2.08,1.13-2.73,2.03-.97,2.02-.97,3.34.34,2.48,1.01,3.4c.67.92,1.59,1.61,2.76,2.06s2.5.67,4,.67,2.84-.23,4.02-.69Z"/><path class="cls-80" d="m1407.48,275.33c-.89,1.16-2.03,2-3.43,2.52-1.4.52-2.89.77-4.47.77h-10.69v-2.66h9.92c2.29,0,4.11-.46,5.46-1.37,1.35-.91,2.02-2.33,2.02-4.27s-.62-3.27-1.85-4.27c-1.24-1-2.96-1.49-5.18-1.49h-10.37v-2.65h19.44v2.38h-2.7c1.04.72,1.84,1.64,2.38,2.75.54,1.12.81,2.38.81,3.78,0,1.84-.44,3.34-1.33,4.5Z"/><path class="cls-45" d="m1408.61,248.97c0,1.24-.21,2.32-.63,3.24s-1.08,1.61-1.98,2.05c-.52.25-1.04.42-1.58.5-.54.08-1.21.12-2.02.12h-11.25v4.16h-2.27v-4.16h-5.4v-2.63h5.4v-5.96h2.27v5.96h11.09c.6,0,1.08-.02,1.45-.07.37-.05.69-.16.98-.32.55-.29.95-.7,1.19-1.24s.36-1.22.36-2.03c0-.68-.07-1.45-.22-2.29h2.32c.19.96.29,1.85.29,2.68Z"/><path class="cls-59" d="m1408.18,239.24c-.44,1.18-1.08,2.13-1.92,2.87-.83.74-1.83,1.22-3,1.43l-.45-2.7c1.12-.28,2-.93,2.65-1.96.65-1.03.97-2.3.97-3.82s-.31-2.64-.93-3.49c-.62-.85-1.46-1.28-2.53-1.28-.62,0-1.12.14-1.49.42-.37.28-.7.81-1.02,1.59s-.7,2.03-1.17,3.74c-.48,1.79-.96,3.17-1.45,4.16s-1.04,1.69-1.66,2.11c-.62.42-1.39.63-2.31.63-1.09,0-2.06-.31-2.9-.93s-1.49-1.48-1.95-2.6c-.46-1.12-.69-2.4-.69-3.85s.24-2.76.71-3.92c.47-1.16,1.14-2.1,2-2.81.86-.71,1.85-1.13,2.96-1.26l.49,2.7c-1.16.19-2.08.78-2.74,1.76s-1,2.23-1,3.74c0,.88.13,1.65.38,2.33.25.68.61,1.21,1.06,1.58.46.38.98.57,1.57.57.54,0,.99-.16,1.34-.48s.69-.88,1.01-1.67c.32-.8.67-1.98,1.07-3.54.47-1.82.95-3.24,1.45-4.24s1.09-1.72,1.76-2.15c.68-.43,1.53-.65,2.55-.65,1.21,0,2.26.31,3.15.92.89.61,1.57,1.49,2.04,2.65.47,1.15.71,2.52.71,4.1s-.22,2.86-.67,4.03Z"/><path class="cls-12" d="m1407.57,220.42c-.86,1.36-2.07,2.4-3.62,3.11s-3.33,1.08-5.35,1.11c-2.05-.02-3.85-.4-5.39-1.12-1.54-.72-2.74-1.76-3.59-3.13-.85-1.37-1.28-3.01-1.28-4.91,0-1.3.22-2.5.65-3.6.43-1.1,1.05-2.05,1.86-2.83.81-.78,1.77-1.35,2.87-1.71l.83,2.59c-1.15.46-2.05,1.18-2.7,2.17-.65.99-.97,2.12-.97,3.39,0,2.08.7,3.65,2.09,4.71,1.39,1.06,3.27,1.6,5.63,1.63,2.39-.02,4.27-.58,5.65-1.66,1.38-1.08,2.07-2.64,2.07-4.68,0-1.32-.3-2.44-.91-3.38-.61-.93-1.49-1.63-2.66-2.12l.79-2.66c1.73.73,3.04,1.79,3.95,3.19.91,1.39,1.36,3.05,1.36,4.97s-.43,3.56-1.3,4.92Z"/><path class="cls-76" d="m1392.94,190.96c-1.35.91-2.03,2.33-2.03,4.27s.62,3.27,1.85,4.27c1.24,1,2.96,1.49,5.18,1.49h10.37v2.66h-25.92v-2.39h9.18c-1.04-.72-1.84-1.64-2.38-2.75-.54-1.12-.81-2.38-.81-3.78,0-1.84.44-3.34,1.33-4.5.89-1.16,2.03-2,3.43-2.52,1.4-.52,2.89-.77,4.47-.77h10.69v2.66h-9.92c-2.29,0-4.11.46-5.46,1.37Z"/><path class="cls-103" d="m1407.6,178.94c-.84,1.4-2.02,2.49-3.55,3.25-1.53.76-3.31,1.14-5.35,1.14s-3.93-.38-5.49-1.12-2.76-1.82-3.6-3.2c-.84-1.39-1.26-3.01-1.26-4.87s.42-3.46,1.25-4.8c.83-1.34,2.03-2.36,3.6-3.08,1.57-.71,3.43-1.07,5.59-1.07h.56v15.32c2.23-.11,3.96-.71,5.17-1.82,1.21-1.1,1.82-2.62,1.82-4.55,0-1.38-.32-2.59-.96-3.64s-1.57-1.87-2.78-2.47l.95-2.47c1.69.77,3,1.9,3.93,3.38s1.4,3.18,1.4,5.08-.42,3.51-1.26,4.91Zm-10.47-10.98c-2.1.19-3.68.8-4.75,1.84-1.07,1.03-1.6,2.45-1.6,4.27s.55,3.34,1.64,4.44,2.66,1.75,4.72,1.95v-12.49Z"/><path class="cls-64" d="m1382.22,160.85v-2.65h2.97v2.65h-2.97Zm6.66,0v-2.65h19.44v2.65h-19.44Z"/><path class="cls-83" d="m1392.94,140.13c-1.35.91-2.03,2.33-2.03,4.27s.62,3.27,1.85,4.27c1.24,1,2.96,1.49,5.18,1.49h10.37v2.66h-19.44v-2.39h2.7c-1.04-.72-1.84-1.64-2.38-2.75-.54-1.12-.81-2.38-.81-3.78,0-1.84.44-3.34,1.33-4.5.89-1.16,2.03-2,3.43-2.52,1.4-.52,2.89-.77,4.47-.77h10.69v2.66h-9.92c-2.29,0-4.11.46-5.46,1.37Z"/><path class="cls-86" d="m1407.6,128.23c-.84,1.4-2.02,2.49-3.55,3.25-1.53.76-3.31,1.14-5.35,1.14s-3.93-.38-5.49-1.12-2.76-1.82-3.6-3.2c-.84-1.39-1.26-3.01-1.26-4.87s.42-3.46,1.25-4.8c.83-1.34,2.03-2.36,3.6-3.08,1.57-.71,3.43-1.07,5.59-1.07h.56v15.32c2.23-.11,3.96-.71,5.17-1.82,1.21-1.1,1.82-2.62,1.82-4.55,0-1.38-.32-2.59-.96-3.64s-1.57-1.87-2.78-2.47l.95-2.47c1.69.77,3,1.9,3.93,3.38s1.4,3.18,1.4,5.08-.42,3.51-1.26,4.91Zm-10.47-10.98c-2.1.19-3.68.8-4.75,1.84-1.07,1.03-1.6,2.45-1.6,4.27s.55,3.34,1.64,4.44,2.66,1.75,4.72,1.95v-12.49Z"/><line class="cls-37" x1="1297.72" y1="27" x2="1297.72" y2="37"/><line class="cls-35" x1="1297.72" y1="57.29" x2="1297.72" y2="452.86"/><line class="cls-37" x1="1297.72" y1="463" x2="1297.72" y2="473"/><text class="cls-18" transform="translate(71.99 415.65)"><tspan x="0" y="0">gültig: Unbestimmt</tspan></text><text class="cls-18" transform="translate(913.64 415.84)"><tspan x="0" y="0">&quot;Uk</tspan><tspan class="cls-96" x="55.62" y="0">r</tspan><tspan class="cls-9" x="67.34" y="0">ai</tspan><tspan class="cls-39" x="94.93" y="0">n</tspan><tspan class="cls-9" x="115.88" y="0">er in Golda</tspan><tspan class="cls-93" x="287.15" y="0">h</tspan><tspan class="cls-57" x="307.44" y="0">&quot;</tspan></text><text class="cls-92" transform="translate(71.99 234.15)"><tspan x="0" y="0">Rober</tspan><tspan class="cls-40" x="171.06" y="0">t</tspan><tspan x="194.91" y="0">o </tspan><tspan class="cls-75" x="243.48" y="0">F</tspan><tspan class="cls-99" x="273.57" y="0">er</tspan><tspan class="cls-75" x="332.55" y="0">r</tspan><tspan x="354.84" y="0">a</tspan><tspan class="cls-81" x="389" y="0">r</tspan><tspan x="411.59" y="0">o</tspan></text><path class="cls-1" d="m76.19,190.95h17.46c1.2,0,2.31.08,3.33.24,2.36.36,4.35,1.17,5.97,2.42s2.83,2.83,3.65,4.75,1.21,4.06,1.21,6.42c0,2.94-.62,5.52-1.88,7.74-1.25,2.22-3.07,3.85-5.47,4.89l8.16,16.74h-7.17l-7.53-15.51h-11.46v15.51h-6.27v-43.2Zm17.22,21.75c1.04,0,1.95-.09,2.73-.27,1.78-.44,3.1-1.38,3.98-2.82s1.31-3.05,1.31-4.83-.44-3.39-1.31-4.83c-.87-1.44-2.2-2.37-3.98-2.79-.74-.2-1.65-.3-2.73-.3h-10.95v15.84h10.95Z"/><path class="cls-62" d="m120.92,232.88c-2.4-1.45-4.25-3.47-5.55-6.06-1.3-2.59-1.95-5.55-1.95-8.9s.66-6.33,1.98-8.91c1.32-2.58,3.18-4.58,5.58-6.01,2.4-1.43,5.17-2.15,8.31-2.15s5.97.72,8.38,2.16,4.27,3.46,5.57,6.04c1.3,2.59,1.95,5.55,1.95,8.87s-.66,6.33-1.96,8.92c-1.31,2.59-3.17,4.6-5.56,6.05-2.4,1.44-5.19,2.16-8.37,2.16s-5.97-.73-8.37-2.17Zm1.53-6.73c1.58,2,3.86,3,6.84,3s5.29-1.02,6.87-3.05c1.58-2.03,2.37-4.75,2.37-8.17s-.79-6.18-2.37-8.17c-1.58-1.99-3.87-2.99-6.87-2.99s-5.34,1-6.89,3c-1.55,2-2.32,4.72-2.32,8.16s.79,6.22,2.37,8.22Z"/><path class="cls-105" d="m161.57,234.06c-1.62-.66-3.03-1.61-4.23-2.85v2.94h-5.58v-43.2h6.3v13.02c2.36-2.08,5.3-3.12,8.82-3.12,2.98,0,5.58.73,7.81,2.2,2.23,1.47,3.95,3.5,5.16,6.09,1.21,2.59,1.81,5.52,1.81,8.77s-.6,6.16-1.8,8.76c-1.2,2.6-2.91,4.65-5.13,6.14-2.22,1.49-4.8,2.23-7.74,2.23-2,0-3.81-.33-5.43-.99Zm-2.06-7.76c1.45,2.05,3.66,3.08,6.62,3.08,1.94,0,3.57-.5,4.9-1.5,1.33-1,2.33-2.36,2.99-4.08.66-1.72.99-3.68.99-5.88s-.33-4.13-.99-5.85c-.66-1.72-1.67-3.07-3.03-4.06-1.36-.99-3.05-1.48-5.07-1.48-2.86,0-5.01,1.02-6.44,3.07-1.43,2.05-2.15,4.83-2.15,8.33s.72,6.33,2.17,8.38Z"/><path class="cls-25" d="m194.17,232.94c-2.44-1.41-4.33-3.39-5.69-5.94-1.35-2.55-2.02-5.48-2.02-8.78,0-3.5.66-6.56,1.98-9.18,1.32-2.62,3.18-4.64,5.58-6.06,2.4-1.42,5.17-2.13,8.31-2.13s5.78.69,8.04,2.07c2.26,1.38,3.99,3.36,5.21,5.92,1.21,2.57,1.81,5.61,1.81,9.1,0,.38-.02.97-.06,1.77h-24.15c.26,3.02,1.17,5.35,2.73,6.98,1.56,1.63,3.7,2.45,6.42,2.45,1.94,0,3.63-.44,5.07-1.32,1.44-.88,2.56-2.16,3.36-3.84l6.15,1.95c-1.24,2.86-3.14,5.1-5.7,6.71-2.56,1.61-5.42,2.42-8.58,2.42s-6.02-.71-8.46-2.11Zm16.74-18.1c-.34-2.86-1.2-4.98-2.56-6.36-1.37-1.38-3.3-2.07-5.78-2.07-2.66,0-4.77.72-6.31,2.15-1.55,1.43-2.52,3.52-2.92,6.29h17.58Z"/><path class="cls-77" d="m224.05,201.75h5.58v5.16c.8-1.42,1.8-2.53,3-3.33.9-.68,1.94-1.19,3.12-1.53,1.18-.34,2.38-.51,3.6-.51.66,0,1.39.07,2.19.21v5.88c-.68-.2-1.47-.3-2.37-.3-.84,0-1.67.1-2.47.31-.81.21-1.56.54-2.24.98-2.72,1.74-4.08,4.8-4.08,9.18v16.35h-6.33v-32.4Z"/><path class="cls-7" d="m260.65,234.69c-2.24,0-4.2-.36-5.86-1.08-1.67-.72-2.92-1.85-3.74-3.39-.5-.94-.82-1.9-.97-2.9-.15-.99-.23-2.19-.23-3.61v-16.92h-6.21v-5.04h6.21v-9h6.3v9h9.63v5.04h-9.63v16.02c0,1.02.04,1.84.12,2.47.08.63.26,1.18.54,1.64.48.8,1.15,1.38,2.02,1.73.87.35,1.94.52,3.2.52,1.08,0,2.33-.11,3.75-.33v5.31c-1.86.36-3.57.54-5.13.54Z"/><path class="cls-13" d="m276.79,232.88c-2.4-1.45-4.25-3.47-5.55-6.06-1.3-2.59-1.95-5.55-1.95-8.9s.66-6.33,1.98-8.91c1.32-2.58,3.18-4.58,5.58-6.01,2.4-1.43,5.17-2.15,8.31-2.15s5.97.72,8.38,2.16,4.27,3.46,5.57,6.04c1.3,2.59,1.95,5.55,1.95,8.87s-.66,6.33-1.96,8.92c-1.31,2.59-3.17,4.6-5.56,6.05-2.4,1.44-5.19,2.16-8.37,2.16s-5.97-.73-8.37-2.17Zm1.53-6.73c1.58,2,3.86,3,6.84,3s5.29-1.02,6.87-3.05c1.58-2.03,2.37-4.75,2.37-8.17s-.79-6.18-2.37-8.17c-1.58-1.99-3.87-2.99-6.87-2.99s-5.34,1-6.89,3c-1.55,2-2.32,4.72-2.32,8.16s.79,6.22,2.37,8.22Z"/><path class="cls-53" d="m319.66,190.95h25.59v6.27h-19.32v12.18h15.72v6.3h-15.72v18.45h-6.27v-43.2Z"/><path class="cls-68" d="m355.66,232.94c-2.44-1.41-4.33-3.39-5.69-5.94-1.35-2.55-2.02-5.48-2.02-8.78,0-3.5.66-6.56,1.98-9.18,1.32-2.62,3.18-4.64,5.58-6.06,2.4-1.42,5.17-2.13,8.31-2.13s5.78.69,8.04,2.07c2.26,1.38,3.99,3.36,5.21,5.92,1.21,2.57,1.81,5.61,1.81,9.1,0,.38-.02.97-.06,1.77h-24.15c.26,3.02,1.17,5.35,2.73,6.98,1.56,1.63,3.7,2.45,6.42,2.45,1.94,0,3.63-.44,5.07-1.32,1.44-.88,2.56-2.16,3.36-3.84l6.15,1.95c-1.24,2.86-3.14,5.1-5.7,6.71-2.56,1.61-5.42,2.42-8.58,2.42s-6.02-.71-8.46-2.11Zm16.74-18.1c-.34-2.86-1.2-4.98-2.56-6.36-1.37-1.38-3.3-2.07-5.78-2.07-2.66,0-4.77.72-6.31,2.15-1.55,1.43-2.52,3.52-2.92,6.29h17.58Z"/><path class="cls-32" d="m385.54,201.75h5.58v5.16c.8-1.42,1.8-2.53,3-3.33.9-.68,1.94-1.19,3.12-1.53,1.18-.34,2.38-.51,3.6-.51.66,0,1.39.07,2.19.21v5.88c-.68-.2-1.47-.3-2.37-.3-.84,0-1.67.1-2.47.31-.81.21-1.56.54-2.24.98-2.72,1.74-4.08,4.8-4.08,9.18v16.35h-6.33v-32.4Z"/><path class="cls-56" d="m408.73,201.75h5.58v5.16c.8-1.42,1.8-2.53,3-3.33.9-.68,1.94-1.19,3.12-1.53,1.18-.34,2.38-.51,3.6-.51.66,0,1.39.07,2.19.21v5.88c-.68-.2-1.47-.3-2.37-.3-.84,0-1.67.1-2.47.31-.81.21-1.56.54-2.24.98-2.72,1.74-4.08,4.8-4.08,9.18v16.35h-6.33v-32.4Z"/><path class="cls-46" d="m434.23,233.75c-1.64-.87-2.89-2.04-3.74-3.51-.85-1.47-1.27-3.1-1.27-4.9,0-4.78,2.55-7.98,7.65-9.6,1.54-.46,3.29-.85,5.24-1.19,1.95-.33,4.65-.73,8.11-1.21l.99-.12c-.1-2.28-.72-3.94-1.86-5-1.14-1.05-2.96-1.57-5.46-1.57-1.82,0-3.42.42-4.8,1.26s-2.33,2.12-2.85,3.84l-5.85-1.8c.8-2.86,2.34-5.09,4.64-6.69,2.29-1.6,5.27-2.4,8.92-2.4,2.98,0,5.53.51,7.65,1.53s3.67,2.57,4.65,4.65c.46.98.76,2.02.92,3.14.15,1.11.22,2.46.22,4.03v19.95h-5.55v-4.71c-1.34,1.9-2.97,3.31-4.88,4.23-1.91.92-4.18,1.38-6.79,1.38-2.32,0-4.3-.44-5.94-1.3Zm2.69-5.15c.99.88,2.44,1.32,4.36,1.32,1.7,0,3.2-.3,4.5-.92,1.3-.61,2.34-1.4,3.14-2.38.79-.98,1.31-2.02,1.57-3.12.4-1.16.62-2.85.66-5.07l-.78.12c-2.92.42-5.1.76-6.55,1.02-1.45.26-2.76.56-3.92.9-1.4.48-2.5,1.1-3.29,1.86s-1.19,1.74-1.19,2.94c0,1.34.5,2.45,1.49,3.33Z"/><path class="cls-6" d="m465.19,201.75h5.58v5.16c.8-1.42,1.8-2.53,3-3.33.9-.68,1.94-1.19,3.12-1.53,1.18-.34,2.38-.51,3.6-.51.66,0,1.39.07,2.19.21v5.88c-.68-.2-1.47-.3-2.37-.3-.84,0-1.67.1-2.47.31-.81.21-1.56.54-2.24.98-2.72,1.74-4.08,4.8-4.08,9.18v16.35h-6.33v-32.4Z"/><path class="cls-78" d="m493.48,232.88c-2.4-1.45-4.25-3.47-5.55-6.06-1.3-2.59-1.95-5.55-1.95-8.9s.66-6.33,1.98-8.91c1.32-2.58,3.18-4.58,5.58-6.01,2.4-1.43,5.17-2.15,8.31-2.15s5.97.72,8.38,2.16,4.27,3.46,5.57,6.04c1.3,2.59,1.95,5.55,1.95,8.87s-.66,6.33-1.96,8.92c-1.31,2.59-3.17,4.6-5.56,6.05-2.4,1.44-5.19,2.16-8.37,2.16s-5.97-.73-8.37-2.17Zm1.53-6.73c1.58,2,3.86,3,6.84,3s5.29-1.02,6.87-3.05c1.58-2.03,2.37-4.75,2.37-8.17s-.79-6.18-2.37-8.17c-1.58-1.99-3.87-2.99-6.87-2.99s-5.34,1-6.89,3c-1.55,2-2.32,4.72-2.32,8.16s.79,6.22,2.37,8.22Z"/></svg>